0
SECTION
2
HEADER
9
$INSUNITS
70
4
9
$ACADVER
1
AC1014
9
$HANDSEED
5
FFFF
0
ENDSEC
0
SECTION
2
TABLES
0
TABLE
2
VPORT
5
8
100
AcDbSymbolTable
0
ENDTAB
0
TABLE
2
LTYPE
5
5
100
AcDbSymbolTable
0
LTYPE
5
14
100
AcDbSymbolTableRecord
100
AcDbLinetypeTableRecord
2
BYBLOCK
70
0
0
LTYPE
5
15
100
AcDbSymbolTableRecord
100
AcDbLinetypeTableRecord
2
BYLAYER
70
0
0
ENDTAB
0
TABLE
2
LAYER
5
2
100
AcDbSymbolTable
70
2
0
LAYER
5
50
100
AcDbSymbolTableRecord
100
AcDbLayerTableRecord
2
0
70
0
6
CONTINUOUS
0
ENDTAB
0
TABLE
2
STYLE
5
3
100
AcDbSymbolTable
70
1
0
STYLE
5
11
100
AcDbSymbolTableRecord
100
AcDbTextStyleTableRecord
2
STANDARD
70
0
0
ENDTAB
0
TABLE
2
VIEW
5
6
100
AcDbSymbolTable
70
0
0
ENDTAB
0
TABLE
2
UCS
5
7
100
AcDbSymbolTable
70
0
0
ENDTAB
0
TABLE
2
APPID
5
9
100
AcDbSymbolTable
70
2
0
APPID
5
12
100
AcDbSymbolTableRecord
100
AcDbRegAppTableRecord
2
ACAD
70
0
0
ENDTAB
0
TABLE
2
DIMSTYLE
5
A
100
AcDbSymbolTable
70
1
0
ENDTAB
0
TABLE
2
BLOCK_RECORD
5
1
100
AcDbSymbolTable
70
1
0
BLOCK_RECORD
5
1F
100
AcDbSymbolTableRecord
100
AcDbBlockTableRecord
2
*MODEL_SPACE
0
BLOCK_RECORD
5
1B
100
AcDbSymbolTableRecord
100
AcDbBlockTableRecord
2
*PAPER_SPACE
0
ENDTAB
0
ENDSEC
0
SECTION
2
BLOCKS
0
BLOCK
5
20
100
AcDbEntity
100
AcDbBlockBegin
2
*MODEL_SPACE
0
ENDBLK
5
21
100
AcDbEntity
100
AcDbBlockEnd
0
BLOCK
5
1C
100
AcDbEntity
100
AcDbBlockBegin
2
*PAPER_SPACE
0
ENDBLK
5
1D
100
AcDbEntity
100
AcDbBlockEnd
0
ENDSEC
0
SECTION
2
ENTITIES
0
LINE
5
100
100
AcDbEntity
8
0
100
AcDbLine
10
15.000000000000107
20
55.000000000000036
30
0
11
15.000000000000107
21
58.000000000000057
31
0
0
LINE
5
101
100
AcDbEntity
8
0
100
AcDbLine
10
15.000000000000107
20
58.000000000000057
30
0
11
35.000000000000036
21
58.000000000000043
31
0
0
LINE
5
102
100
AcDbEntity
8
0
100
AcDbLine
10
35.000000000000036
20
58.000000000000043
30
0
11
35.000000000000036
21
55.000000000000036
31
0
0
LINE
5
103
100
AcDbEntity
8
0
100
AcDbLine
10
35.000000000000036
20
55.000000000000036
30
0
11
15.000000000000107
21
55.000000000000036
31
0
0
LINE
5
104
100
AcDbEntity
8
0
100
AcDbLine
10
35.000000000000036
20
-55.000000000000036
30
0
11
35.000000000000036
21
-57.999999999999986
31
0
0
LINE
5
105
100
AcDbEntity
8
0
100
AcDbLine
10
35.000000000000036
20
-57.999999999999986
30
0
11
15.000000000000036
21
-58.000000000000028
31
0
0
LINE
5
106
100
AcDbEntity
8
0
100
AcDbLine
10
15.000000000000036
20
-58.000000000000028
30
0
11
15.000000000000036
21
-55.000000000000036
31
0
0
LINE
5
107
100
AcDbEntity
8
0
100
AcDbLine
10
15.000000000000036
20
-55.000000000000036
30
0
11
35.000000000000036
21
-55.000000000000036
31
0
0
LINE
5
108
100
AcDbEntity
8
0
100
AcDbLine
10
58.000000000000043
20
34.999999999999936
30
0
11
58.000000000000043
21
14.999999999999982
31
0
0
LINE
5
109
100
AcDbEntity
8
0
100
AcDbLine
10
58.000000000000043
20
14.999999999999982
30
0
11
55.000000000000057
21
14.999999999999982
31
0
0
LINE
5
110
100
AcDbEntity
8
0
100
AcDbLine
10
55.000000000000057
20
14.999999999999982
30
0
11
55.000000000000071
21
34.999999999999957
31
0
0
LINE
5
111
100
AcDbEntity
8
0
100
AcDbLine
10
55.000000000000071
20
34.999999999999957
30
0
11
58.000000000000043
21
34.999999999999936
31
0
0
LINE
5
112
100
AcDbEntity
8
0
100
AcDbLine
10
-58.000000000000014
20
14.999999999999964
30
0
11
-58.000000000000036
21
34.999999999999964
31
0
0
LINE
5
113
100
AcDbEntity
8
0
100
AcDbLine
10
-58.000000000000036
20
34.999999999999964
30
0
11
-55.000000000000071
21
34.999999999999986
31
0
0
LINE
5
114
100
AcDbEntity
8
0
100
AcDbLine
10
-55.000000000000071
20
34.999999999999986
30
0
11
-55.000000000000071
21
14.999999999999929
31
0
0
LINE
5
115
100
AcDbEntity
8
0
100
AcDbLine
10
-55.000000000000071
20
14.999999999999929
30
0
11
-58.000000000000014
21
14.999999999999964
31
0
0
LINE
5
116
100
AcDbEntity
8
0
100
AcDbLine
10
-34.999999999999972
20
58.000000000000028
30
0
11
-14.999999999999964
21
58.000000000000007
31
0
0
LINE
5
117
100
AcDbEntity
8
0
100
AcDbLine
10
-14.999999999999964
20
58.000000000000007
30
0
11
-14.999999999999982
21
55.000000000000085
31
0
0
LINE
5
118
100
AcDbEntity
8
0
100
AcDbLine
10
-14.999999999999982
20
55.000000000000085
30
0
11
-34.999999999999986
21
55.000000000000071
31
0
0
LINE
5
119
100
AcDbEntity
8
0
100
AcDbLine
10
-34.999999999999986
20
55.000000000000071
30
0
11
-34.999999999999972
21
58.000000000000028
31
0
0
LINE
5
120
100
AcDbEntity
8
0
100
AcDbLine
10
-58.000000000000007
20
-35.000000000000036
30
0
11
-58.000000000000007
21
-15.000000000000055
31
0
0
LINE
5
121
100
AcDbEntity
8
0
100
AcDbLine
10
-58.000000000000007
20
-15.000000000000055
30
0
11
-55.000000000000036
21
-15.00000000000006
31
0
0
LINE
5
122
100
AcDbEntity
8
0
100
AcDbLine
10
-55.000000000000036
20
-15.00000000000006
30
0
11
-55.000000000000036
21
-35.000000000000036
31
0
0
LINE
5
123
100
AcDbEntity
8
0
100
AcDbLine
10
-55.000000000000036
20
-35.000000000000036
30
0
11
-58.000000000000007
21
-35.000000000000036
31
0
0
LINE
5
124
100
AcDbEntity
8
0
100
AcDbLine
10
55.000000000000036
20
-15.000000000000044
30
0
11
58.000000000000007
21
-15.000000000000037
31
0
0
LINE
5
125
100
AcDbEntity
8
0
100
AcDbLine
10
58.000000000000007
20
-15.000000000000037
30
0
11
58.000000000000007
21
-35.000000000000028
31
0
0
LINE
5
126
100
AcDbEntity
8
0
100
AcDbLine
10
58.000000000000007
20
-35.000000000000028
30
0
11
55.000000000000014
21
-35.000000000000057
31
0
0
LINE
5
127
100
AcDbEntity
8
0
100
AcDbLine
10
55.000000000000014
20
-35.000000000000057
30
0
11
55.000000000000036
21
-15.000000000000044
31
0
0
LINE
5
128
100
AcDbEntity
8
0
100
AcDbLine
10
-14.999999999999973
20
-58.000000000000043
30
0
11
-34.999999999999972
21
-58.000000000000043
31
0
0
LINE
5
129
100
AcDbEntity
8
0
100
AcDbLine
10
-34.999999999999972
20
-58.000000000000043
30
0
11
-34.999999999999979
21
-55.000000000000064
31
0
0
LINE
5
130
100
AcDbEntity
8
0
100
AcDbLine
10
-34.999999999999979
20
-55.000000000000064
30
0
11
-14.999999999999973
21
-55.000000000000064
31
0
0
LINE
5
131
100
AcDbEntity
8
0
100
AcDbLine
10
-14.999999999999973
20
-55.000000000000064
30
0
11
-14.999999999999973
21
-58.000000000000043
31
0
0
LWPOLYLINE
5
132
100
AcDbEntity
8
0
100
AcDbPolyline
90
52
70
1
43
0.0
10
37.999999999991836
20
58.000000000000149
10
37.999999999991765
20
52.000000000000028
10
51.999999999999922
20
51.999999999999957
10
52.000000000000064
20
37.999999999991729
10
58.000000000000227
20
38.000000000000121
42
-0.41421356237387719
10
61.000000000000227
20
34.999999999991743
10
61.000000000009891
20
14.999999999990282
42
-0.41421356237212875
10
58.000000000000242
20
11.999999999990134
10
52.000000000000064
20
11.999999999990116
10
52.000000000000028
20
-11.999999999995312
10
57.999999999993847
20
-11.999999999999853
42
-0.41421356237274798
10
61.000000000000192
20
-14.999999999990319
10
60.999999999991772
20
-34.9999999999918
42
-0.41421356237388113
10
58.000000000000185
20
-37.999999999991793
10
52.000000000000028
20
-37.99999999998829
10
52.000000000000028
20
-52.000000000000028
10
37.999999999988283
20
-52.000000000000028
10
38.000000000000227
20
-58.000000000000185
42
-0.41421356237388063
10
34.999999999991793
20
-61.000000000000185
10
14.999999999990203
20
-61.000000000009855
42
-0.41421356237273954
10
11.999999999990205
20
-57.999999999993832
10
11.999999999995312
20
-52.000000000000028
10
-11.999999999990116
20
-52.000000000000043
10
-11.999999999999824
20
-58.000000000000227
42
-0.41421356237212986
10
-14.999999999990274
20
-61.000000000000192
10
-34.999999999991729
20
-60.999999999991807
42
-0.41421356237388024
10
-37.999999999991736
20
-58.000000000000242
10
-37.999999999991729
20
-52.000000000000064
10
-51.999999999999964
20
-52.000000000000028
10
-52.000000000000028
20
-37.999999999991779
10
-58.000000000000171
20
-38.000000000000192
42
-0.41421356237388196
10
-61.000000000000163
20
-34.999999999991807
10
-61.000000000009805
20
-14.999999999990351
42
-0.41421356237213186
10
-58.000000000000171
20
-11.999999999990258
10
-51.999999999999972
20
-11.999999999990237
10
-52.000000000000043
20
11.999999999995241
10
-58.000000000000078
20
11.999999999999895
42
-0.41421356237213075
10
-61.000000000000085
20
14.99999999999015
10
-60.999999999992184
20
34.999999999992113
42
-0.41421356237385032
10
-58.000000000000149
20
37.999999999992113
10
-52.000000000000085
20
37.999999999988212
10
-51.999999999999964
20
51.999999999999957
10
-37.999999999988219
20
52.000000000000085
10
-38.000000000000036
20
58.000000000004029
42
-0.41421356237347223
10
-34.999999999992106
20
61.000000000000085
10
-14.999999999990155
20
61.000000000004704
42
-0.41421356237202284
10
-11.999999999995268
20
58.00000000000118
10
-11.999999999995241
20
52.000000000000028
10
11.999999999990241
20
51.999999999999993
10
11.999999999999993
20
58.000000000000149
42
-0.4142135623721333
10
14.999999999990346
20
61.000000000000171
10
34.9999999999918
20
60.999999999991843
42
-0.41421356237388846
0
ENDSEC
0
SECTION
2
OBJECTS
0
DICTIONARY
5
C
100
AcDbDictionary
3
ACAD_GROUP
350
D
3
ACAD_MLINESTYLE
350
17
0
DICTIONARY
5
D
100
AcDbDictionary
0
DICTIONARY
5
1A
330
C
100
AcDbDictionary
0
DICTIONARY
5
17
100
AcDbDictionary
0
ENDSEC
0
EOF
