0
SECTION
2
HEADER
9
$INSUNITS
70
4
9
$ACADVER
1
AC1014
9
$HANDSEED
5
FFFF
0
ENDSEC
0
SECTION
2
TABLES
0
TABLE
2
VPORT
5
8
100
AcDbSymbolTable
0
ENDTAB
0
TABLE
2
LTYPE
5
5
100
AcDbSymbolTable
0
LTYPE
5
14
100
AcDbSymbolTableRecord
100
AcDbLinetypeTableRecord
2
BYBLOCK
70
0
0
LTYPE
5
15
100
AcDbSymbolTableRecord
100
AcDbLinetypeTableRecord
2
BYLAYER
70
0
0
ENDTAB
0
TABLE
2
LAYER
5
2
100
AcDbSymbolTable
70
2
0
LAYER
5
50
100
AcDbSymbolTableRecord
100
AcDbLayerTableRecord
2
0
70
0
6
CONTINUOUS
0
ENDTAB
0
TABLE
2
STYLE
5
3
100
AcDbSymbolTable
70
1
0
STYLE
5
11
100
AcDbSymbolTableRecord
100
AcDbTextStyleTableRecord
2
STANDARD
70
0
0
ENDTAB
0
TABLE
2
VIEW
5
6
100
AcDbSymbolTable
70
0
0
ENDTAB
0
TABLE
2
UCS
5
7
100
AcDbSymbolTable
70
0
0
ENDTAB
0
TABLE
2
APPID
5
9
100
AcDbSymbolTable
70
2
0
APPID
5
12
100
AcDbSymbolTableRecord
100
AcDbRegAppTableRecord
2
ACAD
70
0
0
ENDTAB
0
TABLE
2
DIMSTYLE
5
A
100
AcDbSymbolTable
70
1
0
ENDTAB
0
TABLE
2
BLOCK_RECORD
5
1
100
AcDbSymbolTable
70
1
0
BLOCK_RECORD
5
1F
100
AcDbSymbolTableRecord
100
AcDbBlockTableRecord
2
*MODEL_SPACE
0
BLOCK_RECORD
5
1B
100
AcDbSymbolTableRecord
100
AcDbBlockTableRecord
2
*PAPER_SPACE
0
ENDTAB
0
ENDSEC
0
SECTION
2
BLOCKS
0
BLOCK
5
20
100
AcDbEntity
100
AcDbBlockBegin
2
*MODEL_SPACE
0
ENDBLK
5
21
100
AcDbEntity
100
AcDbBlockEnd
0
BLOCK
5
1C
100
AcDbEntity
100
AcDbBlockBegin
2
*PAPER_SPACE
0
ENDBLK
5
1D
100
AcDbEntity
100
AcDbBlockEnd
0
ENDSEC
0
SECTION
2
ENTITIES
0
LWPOLYLINE
5
100
100
AcDbEntity
8
0
100
AcDbPolyline
90
4
70
1
43
0.0
10
-11.999999999985555
20
-51.999999999999986
10
-37.999999999983622
20
-52
10
-37.999999999983622
20
-55
10
-11.999999999985555
20
-54.999999999999986
0
LWPOLYLINE
5
101
100
AcDbEntity
8
0
100
AcDbPolyline
90
4
70
1
43
0.0
10
38.000000000016215
20
-51.99999999999995
10
12.000000000018147
20
-51.999999999999964
10
12.000000000018147
20
-54.999999999999964
10
38.000000000016215
20
-54.999999999999943
0
LWPOLYLINE
5
102
100
AcDbEntity
8
0
100
AcDbPolyline
90
4
70
1
43
0.0
10
-51.999999999983572
20
12.000000000001968
10
-51.999999999983586
20
38.000000000000028
10
-54.999999999983586
20
38.000000000000036
10
-54.999999999983572
20
12.000000000001965
0
LWPOLYLINE
5
103
100
AcDbEntity
8
0
100
AcDbPolyline
90
4
70
1
43
0.0
10
-51.999999999983537
20
-37.999999999999801
10
-51.999999999983551
20
-12.000000000001736
10
-54.999999999983551
20
-12.000000000001737
10
-54.99999999998353
20
-37.999999999999801
0
LWPOLYLINE
5
104
100
AcDbEntity
8
0
100
AcDbPolyline
90
4
70
1
43
0.0
10
12.000000000018375
20
51.999999999999986
10
38.000000000016442
20
52.000000000000014
10
38.000000000016449
20
55.000000000000007
10
12.000000000018376
20
54.999999999999986
0
LWPOLYLINE
5
105
100
AcDbEntity
8
0
100
AcDbPolyline
90
4
70
1
43
0.0
10
-37.999999999983388
20
51.999999999999943
10
-11.999999999985327
20
51.999999999999964
10
-11.999999999985329
20
54.999999999999964
10
-37.999999999983388
20
54.999999999999936
0
LWPOLYLINE
5
106
100
AcDbEntity
8
0
100
AcDbPolyline
90
4
70
1
43
0.0
10
52.000000000016399
20
-12.000000000001961
10
52.000000000016428
20
-38.000000000000028
10
55.000000000016421
20
-38.000000000000028
10
55.000000000016399
20
-12.000000000001958
0
LWPOLYLINE
5
107
100
AcDbEntity
8
0
100
AcDbPolyline
90
4
70
1
43
0.0
10
52.000000000016357
20
37.999999999999808
10
52.000000000016378
20
12.000000000001743
10
55.000000000016378
20
12.000000000001748
10
55.00000000001635
20
37.999999999999808
0
LWPOLYLINE
5
108
100
AcDbEntity
8
0
100
AcDbPolyline
90
8
70
1
43
0.0
10
-66.000000000083759
20
-73
42
-0.41421356237309509
10
-73.000000000083773
20
-66
10
-73.000000000083759
20
66
42
-0.41421356237309509
10
-66.000000000083759
20
72.999999999999986
10
65.999999999916199
20
72.999999999999986
42
-0.41421356237309509
10
72.999999999916184
20
66
10
72.999999999916199
20
-66
42
-0.41421356237309509
10
65.999999999916199
20
-73
0
ENDSEC
0
SECTION
2
OBJECTS
0
DICTIONARY
5
C
100
AcDbDictionary
3
ACAD_GROUP
350
D
3
ACAD_MLINESTYLE
350
17
0
DICTIONARY
5
D
100
AcDbDictionary
0
DICTIONARY
5
1A
330
C
100
AcDbDictionary
0
DICTIONARY
5
17
100
AcDbDictionary
0
ENDSEC
0
EOF
