0
SECTION
2
HEADER
9
$INSUNITS
70
4
9
$ACADVER
1
AC1014
9
$HANDSEED
5
FFFF
0
ENDSEC
0
SECTION
2
TABLES
0
TABLE
2
VPORT
5
8
100
AcDbSymbolTable
0
ENDTAB
0
TABLE
2
LTYPE
5
5
100
AcDbSymbolTable
0
LTYPE
5
14
100
AcDbSymbolTableRecord
100
AcDbLinetypeTableRecord
2
BYBLOCK
70
0
0
LTYPE
5
15
100
AcDbSymbolTableRecord
100
AcDbLinetypeTableRecord
2
BYLAYER
70
0
0
ENDTAB
0
TABLE
2
LAYER
5
2
100
AcDbSymbolTable
70
2
0
LAYER
5
50
100
AcDbSymbolTableRecord
100
AcDbLayerTableRecord
2
0
70
0
6
CONTINUOUS
0
ENDTAB
0
TABLE
2
STYLE
5
3
100
AcDbSymbolTable
70
1
0
STYLE
5
11
100
AcDbSymbolTableRecord
100
AcDbTextStyleTableRecord
2
STANDARD
70
0
0
ENDTAB
0
TABLE
2
VIEW
5
6
100
AcDbSymbolTable
70
0
0
ENDTAB
0
TABLE
2
UCS
5
7
100
AcDbSymbolTable
70
0
0
ENDTAB
0
TABLE
2
APPID
5
9
100
AcDbSymbolTable
70
2
0
APPID
5
12
100
AcDbSymbolTableRecord
100
AcDbRegAppTableRecord
2
ACAD
70
0
0
ENDTAB
0
TABLE
2
DIMSTYLE
5
A
100
AcDbSymbolTable
70
1
0
ENDTAB
0
TABLE
2
BLOCK_RECORD
5
1
100
AcDbSymbolTable
70
1
0
BLOCK_RECORD
5
1F
100
AcDbSymbolTableRecord
100
AcDbBlockTableRecord
2
*MODEL_SPACE
0
BLOCK_RECORD
5
1B
100
AcDbSymbolTableRecord
100
AcDbBlockTableRecord
2
*PAPER_SPACE
0
ENDTAB
0
ENDSEC
0
SECTION
2
BLOCKS
0
BLOCK
5
20
100
AcDbEntity
100
AcDbBlockBegin
2
*MODEL_SPACE
0
ENDBLK
5
21
100
AcDbEntity
100
AcDbBlockEnd
0
BLOCK
5
1C
100
AcDbEntity
100
AcDbBlockBegin
2
*PAPER_SPACE
0
ENDBLK
5
1D
100
AcDbEntity
100
AcDbBlockEnd
0
ENDSEC
0
SECTION
2
ENTITIES
0
LWPOLYLINE
5
100
100
AcDbEntity
8
0
100
AcDbPolyline
90
4
70
1
43
0.0
10
12.000000000001254
20
3.0000000000000004
10
12.000000000001254
20
0
10
38.000000000000909
20
0
10
38.000000000000909
20
3.0000000000000004
0
LWPOLYLINE
5
101
100
AcDbEntity
8
0
100
AcDbPolyline
90
4
70
1
43
0.0
10
-37.999999999999304
20
3.0000000000000004
10
-37.999999999999304
20
0
10
-12.000000000001039
20
0
10
-12.000000000001037
20
3.0000000000000004
0
LINE
5
102
100
AcDbEntity
8
0
100
AcDbLine
10
-15.000000000000036
20
106.00000000000001
30
0
11
-35.000000000000036
21
106.00000000000001
31
0
0
LINE
5
103
100
AcDbEntity
8
0
100
AcDbLine
10
-35.000000000000036
20
106.00000000000001
30
0
11
-35.000000000000028
21
109.00000000000003
31
0
0
LINE
5
104
100
AcDbEntity
8
0
100
AcDbLine
10
-35.000000000000028
20
109.00000000000003
30
0
11
-15.000000000000034
21
109.00000000000003
31
0
0
LINE
5
105
100
AcDbEntity
8
0
100
AcDbLine
10
-15.000000000000034
20
109.00000000000003
30
0
11
-15.000000000000036
21
106.00000000000001
31
0
0
LINE
5
106
100
AcDbEntity
8
0
100
AcDbLine
10
14.999999999999822
20
109.00000000000006
30
0
11
34.999999999999822
21
109.00000000000006
31
0
0
LINE
5
107
100
AcDbEntity
8
0
100
AcDbLine
10
34.999999999999822
20
109.00000000000006
30
0
11
34.999999999999829
21
106.00000000000006
31
0
0
LINE
5
108
100
AcDbEntity
8
0
100
AcDbLine
10
34.999999999999829
20
106.00000000000006
30
0
11
14.999999999999829
21
106.00000000000006
31
0
0
LINE
5
109
100
AcDbEntity
8
0
100
AcDbLine
10
14.999999999999829
20
106.00000000000006
30
0
11
14.999999999999822
21
109.00000000000006
31
0
0
ARC
5
110
100
AcDbEntity
8
0
100
AcDbCircle
10
-51.000000000000057
20
-34
30
0
40
16
100
AcDbArc
50
-90
51
0
0
LINE
5
111
100
AcDbEntity
8
0
100
AcDbLine
10
-35.000000000000057
20
-34
30
-3.1554436208840472e-30
11
-35.00000000000005
21
-26.000000000000014
31
0
0
ARC
5
112
100
AcDbEntity
8
0
100
AcDbCircle
10
-19.00000000000005
20
-26.000000000000014
30
-1.7516230804060213e-45
40
16.000000000000007
100
AcDbArc
50
90.000000000000014
51
180
0
LINE
5
113
100
AcDbEntity
8
0
100
AcDbLine
10
-19.000000000000053
20
-10.000000000000009
30
-1.4012984643248171e-45
11
18.999999999999929
21
-10
31
0
0
ARC
5
114
100
AcDbEntity
8
0
100
AcDbCircle
10
18.999999999999925
20
-26.000000000000011
30
2.1895288505075267e-46
40
16.000000000000004
100
AcDbArc
50
0
51
89.999999999999986
0
LINE
5
115
100
AcDbEntity
8
0
100
AcDbLine
10
34.999999999999929
20
-26.000000000000011
30
-3.1554436208840472e-30
11
34.999999999999936
21
-34
31
0
0
ARC
5
116
100
AcDbEntity
8
0
100
AcDbCircle
10
50.999999999999929
20
-34
30
0
40
15.999999999999993
100
AcDbArc
50
180
51
270
0
LINE
5
117
100
AcDbEntity
8
0
100
AcDbLine
10
51.999999999999915
20
-50
30
0
11
51.999999999999986
21
-24.499999999999993
31
0
0
LINE
5
118
100
AcDbEntity
8
0
100
AcDbLine
10
51.999999999999986
20
-24.499999999999993
30
0
11
54.999999999999986
21
-24.500000000000028
31
4.9303806576313238e-31
0
LINE
5
119
100
AcDbEntity
8
0
100
AcDbLine
10
54.999999999999986
20
-24.500000000000028
30
4.9303806576313238e-31
11
54.999999999999964
21
0.99999999999997868
31
0
0
LINE
5
120
100
AcDbEntity
8
0
100
AcDbLine
10
54.999999999999964
20
0.99999999999997868
30
0
11
51.999999999999964
21
1.0000000000000142
31
-4.9303806576313238e-31
0
LINE
5
121
100
AcDbEntity
8
0
100
AcDbLine
10
51.999999999999964
20
1.0000000000000142
30
-4.9303806576313238e-31
11
51.999999999999943
21
26.500000000000004
31
0
0
LINE
5
122
100
AcDbEntity
8
0
100
AcDbLine
10
51.999999999999943
20
26.500000000000004
30
0
11
54.999999999999943
21
26.499999999999986
31
0
0
LINE
5
123
100
AcDbEntity
8
0
100
AcDbLine
10
54.999999999999943
20
26.499999999999986
30
0
11
54.999999999999929
21
51.999999999999986
31
0
0
LINE
5
124
100
AcDbEntity
8
0
100
AcDbLine
10
54.999999999999929
20
51.999999999999986
30
0
11
51.999999999999922
21
52
31
0
0
LINE
5
125
100
AcDbEntity
8
0
100
AcDbLine
10
51.999999999999922
20
52
30
0
11
51.999999999999893
21
77.500000000000014
31
0
0
LINE
5
126
100
AcDbEntity
8
0
100
AcDbLine
10
51.999999999999893
20
77.500000000000014
30
0
11
54.999999999999893
21
77.499999999999986
31
4.9303806576313238e-31
0
LINE
5
127
100
AcDbEntity
8
0
100
AcDbLine
10
54.999999999999893
20
77.499999999999986
30
4.9303806576313238e-31
11
54.999999999999893
21
103
31
0
0
LINE
5
128
100
AcDbEntity
8
0
100
AcDbLine
10
54.999999999999893
20
103
30
0
11
37.999999999836675
21
103.00000000000004
31
0
0
LINE
5
129
100
AcDbEntity
8
0
100
AcDbLine
10
37.999999999836675
20
103.00000000000004
30
0
11
37.999999999879229
21
108.99999999997873
31
0
0
ARC
5
130
100
AcDbEntity
8
0
100
AcDbCircle
10
34.999999999999822
20
109.00000000000006
30
0
40
2.9999999998794058
100
AcDbArc
50
0
51
90.000000002303977
0
LINE
5
131
100
AcDbEntity
8
0
100
AcDbLine
10
34.999999999879186
20
112.00000000000004
30
0
11
15.000000000012752
21
112.00000000000004
31
0
0
ARC
5
132
100
AcDbEntity
8
0
100
AcDbCircle
10
14.999999999999822
20
109.00000000000006
30
0
40
2.9999999999999893
100
AcDbArc
50
89.999999999753058
51
180
0
LINE
5
133
100
AcDbEntity
8
0
100
AcDbLine
10
12.00000000001271
20
108.99999999999805
30
0
11
12.000000000016593
21
103
31
0
0
LINE
5
134
100
AcDbEntity
8
0
100
AcDbLine
10
12.000000000016593
20
103
30
0
11
-12.000000000016797
21
103
31
0
0
LINE
5
135
100
AcDbEntity
8
0
100
AcDbLine
10
-12.000000000016797
20
103
30
0
11
-12.000000000012928
21
108.99999999999804
31
0
0
ARC
5
136
100
AcDbEntity
8
0
100
AcDbCircle
10
-15.000000000000034
20
109.00000000000003
30
0
40
2.9999999999871041
100
AcDbArc
50
0
51
90.00000000024707
0
LINE
5
137
100
AcDbEntity
8
0
100
AcDbLine
10
-15.000000000012971
20
112.00000000000001
30
0
11
-34.999999999879407
21
112.00000000000001
31
0
0
ARC
5
138
100
AcDbEntity
8
0
100
AcDbCircle
10
-35.000000000000028
20
109.00000000000003
30
0
40
2.9999999999999893
100
AcDbArc
50
89.999999997696293
51
180
0
LINE
5
139
100
AcDbEntity
8
0
100
AcDbLine
10
-37.999999999879442
20
108.99999999997868
30
0
11
-37.999999999836881
21
103
31
0
0
LINE
5
140
100
AcDbEntity
8
0
100
AcDbLine
10
-37.999999999836881
20
103
30
0
11
-52.000000000001648
21
103.0000000000034
31
0
0
LINE
5
141
100
AcDbEntity
8
0
100
AcDbLine
10
-52.000000000001648
20
103.0000000000034
30
0
11
-52.000000000000099
21
77.499999999999886
31
0
0
LINE
5
142
100
AcDbEntity
8
0
100
AcDbLine
10
-52.000000000000099
20
77.499999999999886
30
0
11
-55.000000000000107
21
77.499999999999844
31
0
0
LINE
5
143
100
AcDbEntity
8
0
100
AcDbLine
10
-55.000000000000107
20
77.499999999999844
30
0
11
-55.000000000000057
21
51.999999999999844
31
0
0
LINE
5
144
100
AcDbEntity
8
0
100
AcDbLine
10
-55.000000000000057
20
51.999999999999844
30
0
11
-52.000000000000064
21
51.999999999999879
31
0
0
LINE
5
145
100
AcDbEntity
8
0
100
AcDbLine
10
-52.000000000000064
20
51.999999999999879
30
0
11
-52.000000000000028
21
26.499999999999879
31
0
0
LINE
5
146
100
AcDbEntity
8
0
100
AcDbLine
10
-52.000000000000028
20
26.499999999999879
30
0
11
-55.000000000000014
21
26.499999999999844
31
0
0
LINE
5
147
100
AcDbEntity
8
0
100
AcDbLine
10
-55.000000000000014
20
26.499999999999844
30
0
11
-54.999999999999986
21
0.99999999999985434
31
0
0
LINE
5
148
100
AcDbEntity
8
0
100
AcDbLine
10
-54.999999999999986
20
0.99999999999985434
30
0
11
-51.999999999999972
21
0.9999999999998721
31
0
0
LINE
5
149
100
AcDbEntity
8
0
100
AcDbLine
10
-51.999999999999972
20
0.9999999999998721
30
0
11
-51.999999999999943
21
-24.500000000000135
31
0
0
LINE
5
150
100
AcDbEntity
8
0
100
AcDbLine
10
-51.999999999999943
20
-24.500000000000135
30
0
11
-54.999999999999943
21
-24.500000000000171
31
0
0
LINE
5
151
100
AcDbEntity
8
0
100
AcDbLine
10
-54.999999999999943
20
-24.500000000000171
30
0
11
-55.000000000001663
21
-49.999999999993605
31
0
0
LINE
5
152
100
AcDbEntity
8
0
100
AcDbLine
10
-55.000000000001663
20
-49.999999999993605
30
0
11
-51.00000000000005
21
-50
31
0
0
LINE
5
153
100
AcDbEntity
8
0
100
AcDbLine
10
50.999999999999929
20
-50
30
0
11
51.999999999999915
21
-50
31
0
0
ENDSEC
0
SECTION
2
OBJECTS
0
DICTIONARY
5
C
100
AcDbDictionary
3
ACAD_GROUP
350
D
3
ACAD_MLINESTYLE
350
17
0
DICTIONARY
5
D
100
AcDbDictionary
0
DICTIONARY
5
1A
330
C
100
AcDbDictionary
0
DICTIONARY
5
17
100
AcDbDictionary
0
ENDSEC
0
EOF
