solid OpenSCAD_Model
  facet normal -1 0 0
    outer loop
      vertex 0 0 0
      vertex 0 0 2
      vertex 0 11 0
    endloop
  endfacet
  facet normal -1 0 0
    outer loop
      vertex 0 11 0
      vertex 0 0 2
      vertex 0 8 2
    endloop
  endfacet
  facet normal -1 0 0
    outer loop
      vertex 0 11 0
      vertex 0 8 2
      vertex 0 8 9
    endloop
  endfacet
  facet normal -1 0 0
    outer loop
      vertex 0 11 0
      vertex 0 8 9
      vertex 0 11 9
    endloop
  endfacet
  facet normal 0 -1 0
    outer loop
      vertex 0 0 2
      vertex 0 0 0
      vertex 25 0 0
    endloop
  endfacet
  facet normal 0 -1 0
    outer loop
      vertex 25 0 2
      vertex 0 0 2
      vertex 25 0 0
    endloop
  endfacet
  facet normal 0 0 -1
    outer loop
      vertex 4.46352 5.92658 0
      vertex 0 11 0
      vertex 25 0 0
    endloop
  endfacet
  facet normal 0 0 -1
    outer loop
      vertex 18.7865 5.38168 0
      vertex 0 11 0
      vertex 22 11 0
    endloop
  endfacet
  facet normal 0 0 -1
    outer loop
      vertex 25 0 0
      vertex 22 11 0
      vertex 22 17 0
    endloop
  endfacet
  facet normal 0 0 -1
    outer loop
      vertex 2.78647 24.3817 0
      vertex 0 17 0
      vertex 0 28 0
    endloop
  endfacet
  facet normal 0 0 -1
    outer loop
      vertex 18.7865 24.3817 0
      vertex 0 28 0
      vertex 25 28 0
    endloop
  endfacet
  facet normal 0 0 -1
    outer loop
      vertex 22 17 0
      vertex 25 28 0
      vertex 25 0 0
    endloop
  endfacet
  facet normal 0 0 -1
    outer loop
      vertex 0 0 0
      vertex 0 11 0
      vertex 2.78647 5.38168 0
    endloop
  endfacet
  facet normal 0 0 -1
    outer loop
      vertex 0 0 0
      vertex 2.78647 5.38168 0
      vertex 2.78647 3.61832 0
    endloop
  endfacet
  facet normal 0 0 -1
    outer loop
      vertex 0 0 0
      vertex 2.78647 3.61832 0
      vertex 4.46352 3.07341 0
    endloop
  endfacet
  facet normal 0 0 -1
    outer loop
      vertex 0 0 0
      vertex 4.46352 3.07341 0
      vertex 25 0 0
    endloop
  endfacet
  facet normal 0 0 -1
    outer loop
      vertex 4.46352 5.92658 0
      vertex 25 0 0
      vertex 5.5 4.5 0
    endloop
  endfacet
  facet normal 0 0 -1
    outer loop
      vertex 2.78647 5.38168 0
      vertex 0 11 0
      vertex 4.46352 5.92658 0
    endloop
  endfacet
  facet normal 0 0 -1
    outer loop
      vertex 2.78647 24.3817 0
      vertex 0 28 0
      vertex 4.46352 24.9266 0
    endloop
  endfacet
  facet normal 0 0 -1
    outer loop
      vertex 2.78647 22.6183 0
      vertex 0 17 0
      vertex 2.78647 24.3817 0
    endloop
  endfacet
  facet normal 0 0 -1
    outer loop
      vertex 5.5 23.5 0
      vertex 22 17 0
      vertex 4.46352 22.0734 0
    endloop
  endfacet
  facet normal 0 0 -1
    outer loop
      vertex 4.46352 22.0734 0
      vertex 0 17 0
      vertex 2.78647 22.6183 0
    endloop
  endfacet
  facet normal 0 0 -1
    outer loop
      vertex 22 17 0
      vertex 0 17 0
      vertex 4.46352 22.0734 0
    endloop
  endfacet
  facet normal 0 0 -1
    outer loop
      vertex 21.5 4.5 0
      vertex 25 0 0
      vertex 20.4635 3.07341 0
    endloop
  endfacet
  facet normal 0 0 -1
    outer loop
      vertex 22 17 0
      vertex 5.5 23.5 0
      vertex 4.46352 24.9266 0
    endloop
  endfacet
  facet normal 0 0 -1
    outer loop
      vertex 22 17 0
      vertex 4.46352 24.9266 0
      vertex 0 28 0
    endloop
  endfacet
  facet normal 0 0 -1
    outer loop
      vertex 18.7865 3.61832 0
      vertex 0 11 0
      vertex 18.7865 5.38168 0
    endloop
  endfacet
  facet normal 0 0 -1
    outer loop
      vertex 20.4635 5.92658 0
      vertex 18.7865 5.38168 0
      vertex 22 11 0
    endloop
  endfacet
  facet normal 0 0 -1
    outer loop
      vertex 25 0 0
      vertex 0 11 0
      vertex 18.7865 3.61832 0
    endloop
  endfacet
  facet normal 0 0 -1
    outer loop
      vertex 25 0 0
      vertex 18.7865 3.61832 0
      vertex 20.4635 3.07341 0
    endloop
  endfacet
  facet normal 0 0 -1
    outer loop
      vertex 20.4635 22.0734 0
      vertex 22 17 0
      vertex 18.7865 22.6183 0
    endloop
  endfacet
  facet normal 0 0 -1
    outer loop
      vertex 25 0 0
      vertex 21.5 4.5 0
      vertex 22 11 0
    endloop
  endfacet
  facet normal 0 0 -1
    outer loop
      vertex 21.5 4.5 0
      vertex 20.4635 5.92658 0
      vertex 22 11 0
    endloop
  endfacet
  facet normal 0 0 -1
    outer loop
      vertex 18.7865 22.6183 0
      vertex 0 28 0
      vertex 18.7865 24.3817 0
    endloop
  endfacet
  facet normal 0 0 -1
    outer loop
      vertex 20.4635 24.9266 0
      vertex 18.7865 24.3817 0
      vertex 25 28 0
    endloop
  endfacet
  facet normal 0 0 -1
    outer loop
      vertex 22 17 0
      vertex 0 28 0
      vertex 18.7865 22.6183 0
    endloop
  endfacet
  facet normal 0 0 -1
    outer loop
      vertex 22 17 0
      vertex 20.4635 22.0734 0
      vertex 25 28 0
    endloop
  endfacet
  facet normal 0 0 -1
    outer loop
      vertex 20.4635 22.0734 0
      vertex 21.5 23.5 0
      vertex 25 28 0
    endloop
  endfacet
  facet normal 0 0 -1
    outer loop
      vertex 21.5 23.5 0
      vertex 20.4635 24.9266 0
      vertex 25 28 0
    endloop
  endfacet
  facet normal 0 0 -1
    outer loop
      vertex 5.5 4.5 0
      vertex 25 0 0
      vertex 4.46352 3.07341 0
    endloop
  endfacet
  facet normal 0 1 0
    outer loop
      vertex 22 11 9
      vertex 22 11 0
      vertex 0 11 9
    endloop
  endfacet
  facet normal 0 1 0
    outer loop
      vertex 0 11 9
      vertex 22 11 0
      vertex 0 11 0
    endloop
  endfacet
  facet normal 0 0 1
    outer loop
      vertex 0 11 9
      vertex 0 8 9
      vertex 25 8 9
    endloop
  endfacet
  facet normal 0 0 1
    outer loop
      vertex 22 11 9
      vertex 0 11 9
      vertex 25 8 9
    endloop
  endfacet
  facet normal 0 0 1
    outer loop
      vertex 0 20 9
      vertex 0 17 9
      vertex 25 20 9
    endloop
  endfacet
  facet normal 0 0 1
    outer loop
      vertex 25 20 9
      vertex 22 17 9
      vertex 25 8 9
    endloop
  endfacet
  facet normal 0 0 1
    outer loop
      vertex 22 17 9
      vertex 22 11 9
      vertex 25 8 9
    endloop
  endfacet
  facet normal 0 0 1
    outer loop
      vertex 0 17 9
      vertex 22 17 9
      vertex 25 20 9
    endloop
  endfacet
  facet normal 0 -1 0
    outer loop
      vertex 0 8 9
      vertex 0 8 2
      vertex 25 8 2
    endloop
  endfacet
  facet normal 0 -1 0
    outer loop
      vertex 25 8 9
      vertex 0 8 9
      vertex 25 8 2
    endloop
  endfacet
  facet normal 0 0 1
    outer loop
      vertex 4.46352 3.07341 2
      vertex 0 0 2
      vertex 25 0 2
    endloop
  endfacet
  facet normal 0 0 1
    outer loop
      vertex 18.7865 3.61832 2
      vertex 0 8 2
      vertex 25 0 2
    endloop
  endfacet
  facet normal 0 0 1
    outer loop
      vertex 20.4635 5.92658 2
      vertex 21.5 4.5 2
      vertex 25 8 2
    endloop
  endfacet
  facet normal 0 0 1
    outer loop
      vertex 0 8 2
      vertex 0 0 2
      vertex 2.78647 3.61832 2
    endloop
  endfacet
  facet normal 0 0 1
    outer loop
      vertex 5.5 4.5 2
      vertex 4.46352 3.07341 2
      vertex 25 0 2
    endloop
  endfacet
  facet normal 0 0 1
    outer loop
      vertex 0 8 2
      vertex 2.78647 3.61832 2
      vertex 2.78647 5.38168 2
    endloop
  endfacet
  facet normal 0 0 1
    outer loop
      vertex 0 8 2
      vertex 4.46352 5.92658 2
      vertex 25 0 2
    endloop
  endfacet
  facet normal 0 0 1
    outer loop
      vertex 0 8 2
      vertex 2.78647 5.38168 2
      vertex 4.46352 5.92658 2
    endloop
  endfacet
  facet normal 0 0 1
    outer loop
      vertex 2.78647 3.61832 2
      vertex 0 0 2
      vertex 4.46352 3.07341 2
    endloop
  endfacet
  facet normal 0 0 1
    outer loop
      vertex 20.4635 3.07341 2
      vertex 18.7865 3.61832 2
      vertex 25 0 2
    endloop
  endfacet
  facet normal 0 0 1
    outer loop
      vertex 18.7865 5.38168 2
      vertex 0 8 2
      vertex 18.7865 3.61832 2
    endloop
  endfacet
  facet normal 0 0 1
    outer loop
      vertex 25 8 2
      vertex 0 8 2
      vertex 18.7865 5.38168 2
    endloop
  endfacet
  facet normal 0 0 1
    outer loop
      vertex 25 8 2
      vertex 18.7865 5.38168 2
      vertex 20.4635 5.92658 2
    endloop
  endfacet
  facet normal 0 0 1
    outer loop
      vertex 25 8 2
      vertex 21.5 4.5 2
      vertex 25 0 2
    endloop
  endfacet
  facet normal 0 0 1
    outer loop
      vertex 21.5 4.5 2
      vertex 20.4635 3.07341 2
      vertex 25 0 2
    endloop
  endfacet
  facet normal 0 0 1
    outer loop
      vertex 4.46352 5.92658 2
      vertex 5.5 4.5 2
      vertex 25 0 2
    endloop
  endfacet
  facet normal 1 0 0
    outer loop
      vertex 25 0 2
      vertex 25 0 0
      vertex 25 28 0
    endloop
  endfacet
  facet normal 1 0 0
    outer loop
      vertex 25 8 2
      vertex 25 0 2
      vertex 25 28 0
    endloop
  endfacet
  facet normal 1 0 0
    outer loop
      vertex 25 20 2
      vertex 25 8 2
      vertex 25 28 0
    endloop
  endfacet
  facet normal 1 0 0
    outer loop
      vertex 25 28 2
      vertex 25 20 2
      vertex 25 28 0
    endloop
  endfacet
  facet normal 1 0 0
    outer loop
      vertex 25 20 9
      vertex 25 8 2
      vertex 25 20 2
    endloop
  endfacet
  facet normal 1 0 0
    outer loop
      vertex 25 8 9
      vertex 25 8 2
      vertex 25 20 9
    endloop
  endfacet
  facet normal 0 1 0
    outer loop
      vertex 0 28 0
      vertex 0 28 2
      vertex 25 28 0
    endloop
  endfacet
  facet normal 0 1 0
    outer loop
      vertex 25 28 0
      vertex 0 28 2
      vertex 25 28 2
    endloop
  endfacet
  facet normal -1 0 0
    outer loop
      vertex 0 28 2
      vertex 0 28 0
      vertex 0 20 2
    endloop
  endfacet
  facet normal -1 0 0
    outer loop
      vertex 0 17 0
      vertex 0 17 9
      vertex 0 20 2
    endloop
  endfacet
  facet normal -1 0 0
    outer loop
      vertex 0 17 0
      vertex 0 20 2
      vertex 0 28 0
    endloop
  endfacet
  facet normal -1 0 0
    outer loop
      vertex 0 20 2
      vertex 0 17 9
      vertex 0 20 9
    endloop
  endfacet
  facet normal 0 -1 0
    outer loop
      vertex 22 17 0
      vertex 22 17 9
      vertex 0 17 9
    endloop
  endfacet
  facet normal 0 -1 0
    outer loop
      vertex 0 17 0
      vertex 22 17 0
      vertex 0 17 9
    endloop
  endfacet
  facet normal -1 0 0
    outer loop
      vertex 22 17 9
      vertex 22 17 0
      vertex 22 11 9
    endloop
  endfacet
  facet normal -1 0 0
    outer loop
      vertex 22 11 9
      vertex 22 17 0
      vertex 22 11 0
    endloop
  endfacet
  facet normal 1 0 0
    outer loop
      vertex 2.78647 5.38168 0
      vertex 2.78647 5.38168 2
      vertex 2.78647 3.61832 2
    endloop
  endfacet
  facet normal 1 0 0
    outer loop
      vertex 2.78647 3.61832 0
      vertex 2.78647 5.38168 0
      vertex 2.78647 3.61832 2
    endloop
  endfacet
  facet normal 0.309017 -0.951056 0
    outer loop
      vertex 4.46352 5.92658 0
      vertex 4.46352 5.92658 2
      vertex 2.78647 5.38168 2
    endloop
  endfacet
  facet normal 0.309017 -0.951056 0
    outer loop
      vertex 2.78647 5.38168 0
      vertex 4.46352 5.92658 0
      vertex 2.78647 5.38168 2
    endloop
  endfacet
  facet normal -0.809017 -0.587785 0
    outer loop
      vertex 5.5 4.5 2
      vertex 4.46352 5.92658 2
      vertex 5.5 4.5 0
    endloop
  endfacet
  facet normal -0.809017 -0.587785 0
    outer loop
      vertex 5.5 4.5 0
      vertex 4.46352 5.92658 2
      vertex 4.46352 5.92658 0
    endloop
  endfacet
  facet normal -0.809017 0.587785 0
    outer loop
      vertex 5.5 4.5 2
      vertex 5.5 4.5 0
      vertex 4.46352 3.07341 2
    endloop
  endfacet
  facet normal -0.809017 0.587785 0
    outer loop
      vertex 4.46352 3.07341 2
      vertex 5.5 4.5 0
      vertex 4.46352 3.07341 0
    endloop
  endfacet
  facet normal 0.309017 0.951056 0
    outer loop
      vertex 4.46352 3.07341 2
      vertex 4.46352 3.07341 0
      vertex 2.78647 3.61832 2
    endloop
  endfacet
  facet normal 0.309017 0.951056 0
    outer loop
      vertex 2.78647 3.61832 2
      vertex 4.46352 3.07341 0
      vertex 2.78647 3.61832 0
    endloop
  endfacet
  facet normal 1 0 0
    outer loop
      vertex 2.78647 24.3817 0
      vertex 2.78647 24.3817 2
      vertex 2.78647 22.6183 2
    endloop
  endfacet
  facet normal 1 0 0
    outer loop
      vertex 2.78647 22.6183 0
      vertex 2.78647 24.3817 0
      vertex 2.78647 22.6183 2
    endloop
  endfacet
  facet normal 0.309017 -0.951056 0
    outer loop
      vertex 4.46352 24.9266 0
      vertex 4.46352 24.9266 2
      vertex 2.78647 24.3817 2
    endloop
  endfacet
  facet normal 0.309017 -0.951056 0
    outer loop
      vertex 2.78647 24.3817 0
      vertex 4.46352 24.9266 0
      vertex 2.78647 24.3817 2
    endloop
  endfacet
  facet normal -0.809017 -0.587785 0
    outer loop
      vertex 5.5 23.5 2
      vertex 4.46352 24.9266 2
      vertex 5.5 23.5 0
    endloop
  endfacet
  facet normal -0.809017 -0.587785 0
    outer loop
      vertex 5.5 23.5 0
      vertex 4.46352 24.9266 2
      vertex 4.46352 24.9266 0
    endloop
  endfacet
  facet normal -0.809017 0.587785 0
    outer loop
      vertex 5.5 23.5 2
      vertex 5.5 23.5 0
      vertex 4.46352 22.0734 2
    endloop
  endfacet
  facet normal -0.809017 0.587785 0
    outer loop
      vertex 4.46352 22.0734 2
      vertex 5.5 23.5 0
      vertex 4.46352 22.0734 0
    endloop
  endfacet
  facet normal 0.309017 0.951056 0
    outer loop
      vertex 4.46352 22.0734 2
      vertex 4.46352 22.0734 0
      vertex 2.78647 22.6183 2
    endloop
  endfacet
  facet normal 0.309017 0.951056 0
    outer loop
      vertex 2.78647 22.6183 2
      vertex 4.46352 22.0734 0
      vertex 2.78647 22.6183 0
    endloop
  endfacet
  facet normal 1 0 0
    outer loop
      vertex 18.7865 5.38168 0
      vertex 18.7865 5.38168 2
      vertex 18.7865 3.61832 2
    endloop
  endfacet
  facet normal 1 0 0
    outer loop
      vertex 18.7865 3.61832 0
      vertex 18.7865 5.38168 0
      vertex 18.7865 3.61832 2
    endloop
  endfacet
  facet normal 0.309017 -0.951056 0
    outer loop
      vertex 20.4635 5.92658 0
      vertex 20.4635 5.92658 2
      vertex 18.7865 5.38168 2
    endloop
  endfacet
  facet normal 0.309017 -0.951056 0
    outer loop
      vertex 18.7865 5.38168 0
      vertex 20.4635 5.92658 0
      vertex 18.7865 5.38168 2
    endloop
  endfacet
  facet normal -0.809017 -0.587785 0
    outer loop
      vertex 21.5 4.5 2
      vertex 20.4635 5.92658 2
      vertex 21.5 4.5 0
    endloop
  endfacet
  facet normal -0.809017 -0.587785 0
    outer loop
      vertex 21.5 4.5 0
      vertex 20.4635 5.92658 2
      vertex 20.4635 5.92658 0
    endloop
  endfacet
  facet normal -0.809017 0.587785 0
    outer loop
      vertex 21.5 4.5 2
      vertex 21.5 4.5 0
      vertex 20.4635 3.07341 2
    endloop
  endfacet
  facet normal -0.809017 0.587785 0
    outer loop
      vertex 20.4635 3.07341 2
      vertex 21.5 4.5 0
      vertex 20.4635 3.07341 0
    endloop
  endfacet
  facet normal 0.309017 0.951056 0
    outer loop
      vertex 20.4635 3.07341 2
      vertex 20.4635 3.07341 0
      vertex 18.7865 3.61832 2
    endloop
  endfacet
  facet normal 0.309017 0.951056 0
    outer loop
      vertex 18.7865 3.61832 2
      vertex 20.4635 3.07341 0
      vertex 18.7865 3.61832 0
    endloop
  endfacet
  facet normal 1 0 0
    outer loop
      vertex 18.7865 24.3817 0
      vertex 18.7865 24.3817 2
      vertex 18.7865 22.6183 2
    endloop
  endfacet
  facet normal 1 0 0
    outer loop
      vertex 18.7865 22.6183 0
      vertex 18.7865 24.3817 0
      vertex 18.7865 22.6183 2
    endloop
  endfacet
  facet normal 0.309017 -0.951056 0
    outer loop
      vertex 20.4635 24.9266 0
      vertex 20.4635 24.9266 2
      vertex 18.7865 24.3817 2
    endloop
  endfacet
  facet normal 0.309017 -0.951056 0
    outer loop
      vertex 18.7865 24.3817 0
      vertex 20.4635 24.9266 0
      vertex 18.7865 24.3817 2
    endloop
  endfacet
  facet normal -0.809017 -0.587785 0
    outer loop
      vertex 21.5 23.5 2
      vertex 20.4635 24.9266 2
      vertex 21.5 23.5 0
    endloop
  endfacet
  facet normal -0.809017 -0.587785 0
    outer loop
      vertex 21.5 23.5 0
      vertex 20.4635 24.9266 2
      vertex 20.4635 24.9266 0
    endloop
  endfacet
  facet normal -0.809017 0.587785 0
    outer loop
      vertex 21.5 23.5 2
      vertex 21.5 23.5 0
      vertex 20.4635 22.0734 2
    endloop
  endfacet
  facet normal -0.809017 0.587785 0
    outer loop
      vertex 20.4635 22.0734 2
      vertex 21.5 23.5 0
      vertex 20.4635 22.0734 0
    endloop
  endfacet
  facet normal 0.309017 0.951056 0
    outer loop
      vertex 20.4635 22.0734 2
      vertex 20.4635 22.0734 0
      vertex 18.7865 22.6183 2
    endloop
  endfacet
  facet normal 0.309017 0.951056 0
    outer loop
      vertex 18.7865 22.6183 2
      vertex 20.4635 22.0734 0
      vertex 18.7865 22.6183 0
    endloop
  endfacet
  facet normal 0 1 0
    outer loop
      vertex 0 20 2
      vertex 0 20 9
      vertex 25 20 2
    endloop
  endfacet
  facet normal 0 1 0
    outer loop
      vertex 25 20 2
      vertex 0 20 9
      vertex 25 20 9
    endloop
  endfacet
  facet normal 0 0 1
    outer loop
      vertex 4.46352 22.0734 2
      vertex 0 20 2
      vertex 25 20 2
    endloop
  endfacet
  facet normal 0 0 1
    outer loop
      vertex 18.7865 22.6183 2
      vertex 0 28 2
      vertex 25 20 2
    endloop
  endfacet
  facet normal 0 0 1
    outer loop
      vertex 20.4635 24.9266 2
      vertex 21.5 23.5 2
      vertex 25 28 2
    endloop
  endfacet
  facet normal 0 0 1
    outer loop
      vertex 0 28 2
      vertex 0 20 2
      vertex 2.78647 22.6183 2
    endloop
  endfacet
  facet normal 0 0 1
    outer loop
      vertex 5.5 23.5 2
      vertex 4.46352 22.0734 2
      vertex 25 20 2
    endloop
  endfacet
  facet normal 0 0 1
    outer loop
      vertex 0 28 2
      vertex 2.78647 22.6183 2
      vertex 2.78647 24.3817 2
    endloop
  endfacet
  facet normal 0 0 1
    outer loop
      vertex 0 28 2
      vertex 4.46352 24.9266 2
      vertex 25 20 2
    endloop
  endfacet
  facet normal 0 0 1
    outer loop
      vertex 0 28 2
      vertex 2.78647 24.3817 2
      vertex 4.46352 24.9266 2
    endloop
  endfacet
  facet normal 0 0 1
    outer loop
      vertex 2.78647 22.6183 2
      vertex 0 20 2
      vertex 4.46352 22.0734 2
    endloop
  endfacet
  facet normal 0 0 1
    outer loop
      vertex 20.4635 22.0734 2
      vertex 18.7865 22.6183 2
      vertex 25 20 2
    endloop
  endfacet
  facet normal 0 0 1
    outer loop
      vertex 18.7865 24.3817 2
      vertex 0 28 2
      vertex 18.7865 22.6183 2
    endloop
  endfacet
  facet normal 0 0 1
    outer loop
      vertex 25 28 2
      vertex 0 28 2
      vertex 18.7865 24.3817 2
    endloop
  endfacet
  facet normal 0 0 1
    outer loop
      vertex 25 28 2
      vertex 18.7865 24.3817 2
      vertex 20.4635 24.9266 2
    endloop
  endfacet
  facet normal 0 0 1
    outer loop
      vertex 25 28 2
      vertex 21.5 23.5 2
      vertex 25 20 2
    endloop
  endfacet
  facet normal 0 0 1
    outer loop
      vertex 21.5 23.5 2
      vertex 20.4635 22.0734 2
      vertex 25 20 2
    endloop
  endfacet
  facet normal 0 0 1
    outer loop
      vertex 4.46352 24.9266 2
      vertex 5.5 23.5 2
      vertex 25 20 2
    endloop
  endfacet
endsolid OpenSCAD_Model
